<svg width="130" height="128" viewBox="0 0 130 128" fill="none" xmlns="http://www.w3.org/2000/svg">
<path d="M66.7072 29.0394C71.1185 36.68 68.3218 46.5824 60.4177 51.1458C52.5136 55.7093 42.5396 53.18 38.1283 45.5394C33.717 37.8988 36.5136 27.9964 44.4177 23.433C52.3218 18.8696 62.2959 21.3988 66.7072 29.0394Z" stroke="black" stroke-opacity="0.25"/>
<path d="M120.822 64.7689C125.234 72.4095 122.437 82.3119 114.533 86.8753C106.629 91.4388 96.6549 88.9095 92.2436 81.2689C87.8323 73.6283 90.6289 63.7259 98.533 59.1625C106.437 54.5991 116.411 57.1283 120.822 64.7689Z" stroke="black" stroke-opacity="0.25"/>
<path d="M66.2619 96.2689C70.6731 103.909 67.8765 113.812 59.9724 118.375C52.0683 122.939 42.0943 120.409 37.683 112.769C33.2717 105.128 36.0683 95.2259 43.9724 90.6625C51.8765 86.0991 61.8506 88.6283 66.2619 96.2689Z" stroke="black" stroke-opacity="0.25"/>
<path d="M49.5028 51.3109L55.6464 93.9519M67.7202 40.7939L98.9786 68.9338" stroke="black" stroke-opacity="0.25"/>
</svg>
